<svg width="512" height="512" viewBox="0 0 512 512" fill="none" xmlns="http://www.w3.org/2000/svg">
  <circle cx="256" cy="256" r="250" fill="white" stroke="#f3f4f6" stroke-width="4"/>
  <mask id="mask0" style="mask-type:alpha" maskUnits="userSpaceOnUse" x="6" y="6" width="500" height="500">
    <circle cx="256" cy="256" r="250" fill="white"/>
  </mask>
  <g mask="url(#mask0)">
    <rect x="6" y="6" width="500" height="250" fill="#FF7A00"/>
    <rect x="6" y="256" width="500" height="250" fill="#007BFF"/>
    <path d="M6 256 Q131 226 256 256 T506 256" stroke="white" stroke-width="8" fill="none" opacity="0.3"/>
    
    <!-- Top Snowflake (Simplified) -->
    <g transform="translate(256, 131) scale(1.5)">
      <path d="M0 -30 L0 30 M-30 0 L30 0 M-21 -21 L21 21 M-21 21 L21 -21" stroke="white" stroke-width="4" stroke-linecap="round"/>
      <circle cx="0" cy="0" r="4" fill="white"/>
    </g>
    
    <!-- Bottom Snowflake (Simplified) -->
    <g transform="translate(256, 381) scale(1.5)">
      <path d="M0 -30 L0 30 M-30 0 L30 0 M-21 -21 L21 21 M-21 21 L21 -21" stroke="white" stroke-width="4" stroke-linecap="round"/>
      <circle cx="0" cy="0" r="4" fill="white"/>
    </g>
  </g>
</svg>
